<mxfile host="app.diagrams.net" modified="2023-05-05T21:12:20.015Z" agent="Mozilla/5.0 (X11; Linux x86_64) AppleWebKit/537.36 (KHTML, like Gecko) Chrome/112.0.0.0 Safari/537.36" etag="SThxSrZdF6R6mwHqxxxZ" version="21.2.1" type="github">
  <diagram name="Page-1" id="TNbmgFJ4rGOWiyjLX6vp">
    <mxGraphModel dx="992" dy="629" grid="1" gridSize="10" guides="1" tooltips="1" connect="1" arrows="1" fold="1" page="1" pageScale="1" pageWidth="850" pageHeight="1100" math="1" shadow="0">
      <root>
        <mxCell id="0" />
        <mxCell id="1" parent="0" />
        <mxCell id="ZjjznndVC-6k5SrVuJLU-1" value="&lt;font style=&quot;font-size: 16px;&quot;&gt;IoT Sensor Node&lt;/font&gt;" style="rounded=1;whiteSpace=wrap;html=1;fillColor=#dae8fc;strokeColor=#6c8ebf;" parent="1" vertex="1">
          <mxGeometry x="100" y="50" width="160" height="40" as="geometry" />
        </mxCell>
        <mxCell id="ZjjznndVC-6k5SrVuJLU-2" value="&lt;font style=&quot;font-size: 16px;&quot;&gt;Gateway&lt;/font&gt;" style="rounded=1;whiteSpace=wrap;html=1;fillColor=#f8cecc;strokeColor=#b85450;" parent="1" vertex="1">
          <mxGeometry x="640" y="50" width="140" height="40" as="geometry" />
        </mxCell>
        <mxCell id="ZjjznndVC-6k5SrVuJLU-3" value="&lt;font style=&quot;font-size: 16px;&quot;&gt;Compute: `R_{SN}` = `P_{SN}`(`C_{SN}`)&lt;br&gt;Compute: X = h(`R_{SN})_{T96}`&lt;br&gt;Compute: `\phi= XF`&lt;/font&gt;" style="rounded=1;whiteSpace=wrap;html=1;fillColor=#66B2FF;strokeColor=#6c8ebf;align=left;spacingLeft=8;" parent="1" vertex="1">
          <mxGeometry x="70" y="160" width="230" height="110" as="geometry" />
        </mxCell>
        <mxCell id="ZjjznndVC-6k5SrVuJLU-4" value="&lt;font style=&quot;font-size: 16px;&quot;&gt;Generate: `C_{SN}`&lt;br&gt;Select:`{F}_{EC}`&lt;/font&gt;" style="rounded=1;whiteSpace=wrap;html=1;fillColor=#97D077;strokeColor=#82b366;align=center;" parent="1" vertex="1">
          <mxGeometry x="610" y="140" width="170" height="60" as="geometry" />
        </mxCell>
        <mxCell id="ZjjznndVC-6k5SrVuJLU-6" value="&lt;div style=&quot;border-color: var(--border-color); text-align: left; font-size: 15px;&quot;&gt;&lt;font style=&quot;font-size: 15px;&quot;&gt;Generate: `k_{sg} =KDF(K, S, I)`&lt;/font&gt;&lt;/div&gt;&lt;div style=&quot;border-color: var(--border-color); text-align: left; font-size: 15px;&quot;&gt;&lt;font style=&quot;font-size: 15px;&quot;&gt;Assign: `K_{SG}^1=h(k_{sg}),K_{SG}^2=k_{sg}`&lt;/font&gt;&lt;/div&gt;&lt;div style=&quot;border-color: var(--border-color); text-align: left; font-size: 15px;&quot;&gt;&lt;span style=&quot;border-color: var(--border-color); background-color: initial;&quot;&gt;&lt;font style=&quot;font-size: 15px;&quot;&gt;Create: Array N, where N[0]=`K_{SG}^1`,N[1]=`K_{SG}^2`&lt;/font&gt;&lt;/span&gt;&lt;/div&gt;&lt;div style=&quot;border-color: var(--border-color); text-align: left; font-size: 15px;&quot;&gt;&lt;span style=&quot;border-color: var(--border-color); background-color: initial;&quot;&gt;&lt;font style=&quot;font-size: 15px;&quot;&gt;Generate: Flag `f_{sn}` = 0&lt;/font&gt;&lt;/span&gt;&lt;/div&gt;&lt;div style=&quot;border-color: var(--border-color); text-align: left; font-size: 15px;&quot;&gt;&lt;span style=&quot;border-color: var(--border-color); background-color: initial;&quot;&gt;&lt;font style=&quot;font-size: 15px;&quot;&gt;Compute: `\gamma=h(XF||K_{SG}^1)`&lt;/font&gt;&lt;/span&gt;&lt;/div&gt;" style="rounded=1;whiteSpace=wrap;html=1;fillColor=#fff2cc;strokeColor=#d6b656;" parent="1" vertex="1">
          <mxGeometry x="470" y="220" width="350" height="120" as="geometry" />
        </mxCell>
        <mxCell id="ZjjznndVC-6k5SrVuJLU-7" value="&lt;font style=&quot;font-size: 16px;&quot;&gt;Store: F, `K_{SG}^1, f_{sn}`&lt;/font&gt;" style="rounded=1;whiteSpace=wrap;html=1;fillColor=#FF99CC;" parent="1" vertex="1">
          <mxGeometry x="90" y="390" width="170" height="50" as="geometry" />
        </mxCell>
        <mxCell id="ZjjznndVC-6k5SrVuJLU-8" value="&lt;font style=&quot;font-size: 16px;&quot;&gt;Store: `C_{SN},F, N, gamma`&lt;/font&gt;" style="rounded=1;whiteSpace=wrap;html=1;fillColor=#e1d5e7;strokeColor=#9673a6;" parent="1" vertex="1">
          <mxGeometry x="580" y="390" width="230" height="50" as="geometry" />
        </mxCell>
        <mxCell id="ZjjznndVC-6k5SrVuJLU-9" value="&lt;font style=&quot;font-size: 16px;&quot;&gt;`C_{SN}, F`&lt;/font&gt;" style="rounded=0;whiteSpace=wrap;html=1;fillColor=#d5e8d4;strokeColor=#82b366;" parent="1" vertex="1">
          <mxGeometry x="420" y="170" width="70" height="30" as="geometry" />
        </mxCell>
        <mxCell id="ZjjznndVC-6k5SrVuJLU-11" value="&lt;font style=&quot;font-size: 16px;&quot;&gt;`K_{SG}^1,f_{sn}`&lt;/font&gt;" style="rounded=0;whiteSpace=wrap;html=1;fillColor=#d5e8d4;strokeColor=#82b366;" parent="1" vertex="1">
          <mxGeometry x="350" y="350" width="102" height="32" as="geometry" />
        </mxCell>
        <mxCell id="ZjjznndVC-6k5SrVuJLU-14" value="" style="endArrow=classic;html=1;rounded=0;exitX=1;exitY=0.5;exitDx=0;exitDy=0;" parent="1" source="ZjjznndVC-6k5SrVuJLU-10" edge="1">
          <mxGeometry width="50" height="50" relative="1" as="geometry">
            <mxPoint x="421" y="256" as="sourcePoint" />
            <mxPoint x="471" y="256" as="targetPoint" />
          </mxGeometry>
        </mxCell>
        <mxCell id="ZjjznndVC-6k5SrVuJLU-15" value="" style="endArrow=none;dashed=1;html=1;rounded=0;entryX=0.5;entryY=0;entryDx=0;entryDy=0;" parent="1" target="ZjjznndVC-6k5SrVuJLU-7" edge="1">
          <mxGeometry width="50" height="50" relative="1" as="geometry">
            <mxPoint x="177" y="270" as="sourcePoint" />
            <mxPoint x="110" y="390" as="targetPoint" />
          </mxGeometry>
        </mxCell>
        <mxCell id="ZjjznndVC-6k5SrVuJLU-16" value="" style="endArrow=none;dashed=1;html=1;rounded=0;exitX=0.57;exitY=0.028;exitDx=0;exitDy=0;exitPerimeter=0;" parent="1" source="ZjjznndVC-6k5SrVuJLU-8" edge="1">
          <mxGeometry width="50" height="50" relative="1" as="geometry">
            <mxPoint x="731" y="389" as="sourcePoint" />
            <mxPoint x="710" y="340" as="targetPoint" />
          </mxGeometry>
        </mxCell>
        <mxCell id="ZjjznndVC-6k5SrVuJLU-17" value="" style="endArrow=none;html=1;rounded=0;entryX=1;entryY=0.5;entryDx=0;entryDy=0;" parent="1" target="ZjjznndVC-6k5SrVuJLU-11" edge="1">
          <mxGeometry width="50" height="50" relative="1" as="geometry">
            <mxPoint x="711" y="366" as="sourcePoint" />
            <mxPoint x="450" y="240" as="targetPoint" />
          </mxGeometry>
        </mxCell>
        <mxCell id="ZjjznndVC-6k5SrVuJLU-18" value="" style="endArrow=classic;html=1;rounded=0;exitX=0;exitY=0.5;exitDx=0;exitDy=0;" parent="1" source="ZjjznndVC-6k5SrVuJLU-11" edge="1">
          <mxGeometry width="50" height="50" relative="1" as="geometry">
            <mxPoint x="400" y="290" as="sourcePoint" />
            <mxPoint x="178" y="366" as="targetPoint" />
          </mxGeometry>
        </mxCell>
        <mxCell id="ZjjznndVC-6k5SrVuJLU-19" value="" style="endArrow=none;html=1;rounded=0;entryX=1;entryY=0.5;entryDx=0;entryDy=0;" parent="1" target="ZjjznndVC-6k5SrVuJLU-9" edge="1">
          <mxGeometry width="50" height="50" relative="1" as="geometry">
            <mxPoint x="610" y="184" as="sourcePoint" />
            <mxPoint x="450" y="240" as="targetPoint" />
          </mxGeometry>
        </mxCell>
        <mxCell id="ZjjznndVC-6k5SrVuJLU-20" value="" style="endArrow=classic;html=1;rounded=0;exitX=0;exitY=0.5;exitDx=0;exitDy=0;" parent="1" source="ZjjznndVC-6k5SrVuJLU-9" edge="1">
          <mxGeometry width="50" height="50" relative="1" as="geometry">
            <mxPoint x="400" y="290" as="sourcePoint" />
            <mxPoint x="301" y="186" as="targetPoint" />
          </mxGeometry>
        </mxCell>
        <mxCell id="ZjjznndVC-6k5SrVuJLU-21" value="" style="endArrow=none;dashed=1;html=1;rounded=0;" parent="1" edge="1">
          <mxGeometry width="50" height="50" relative="1" as="geometry">
            <mxPoint x="180" y="90" as="sourcePoint" />
            <mxPoint x="180" y="160" as="targetPoint" />
          </mxGeometry>
        </mxCell>
        <mxCell id="ZjjznndVC-6k5SrVuJLU-22" value="" style="endArrow=none;dashed=1;html=1;rounded=0;entryX=0.588;entryY=1;entryDx=0;entryDy=0;entryPerimeter=0;" parent="1" target="ZjjznndVC-6k5SrVuJLU-4" edge="1">
          <mxGeometry width="50" height="50" relative="1" as="geometry">
            <mxPoint x="710" y="230" as="sourcePoint" />
            <mxPoint x="450" y="240" as="targetPoint" />
          </mxGeometry>
        </mxCell>
        <mxCell id="ZjjznndVC-6k5SrVuJLU-23" value="" style="endArrow=none;dashed=1;html=1;rounded=0;exitX=0.5;exitY=1;exitDx=0;exitDy=0;" parent="1" source="ZjjznndVC-6k5SrVuJLU-2" edge="1">
          <mxGeometry width="50" height="50" relative="1" as="geometry">
            <mxPoint x="400" y="290" as="sourcePoint" />
            <mxPoint x="710" y="150" as="targetPoint" />
          </mxGeometry>
        </mxCell>
        <mxCell id="ZjjznndVC-6k5SrVuJLU-24" value="1" style="rounded=0;whiteSpace=wrap;html=1;fillColor=#d5e8d4;strokeColor=#82b366;" parent="1" vertex="1">
          <mxGeometry x="790" y="140" width="10" height="20" as="geometry" />
        </mxCell>
        <mxCell id="ZjjznndVC-6k5SrVuJLU-25" value="2" style="rounded=0;whiteSpace=wrap;html=1;fillColor=#d5e8d4;strokeColor=#82b366;" parent="1" vertex="1">
          <mxGeometry x="50" y="160" width="10" height="20" as="geometry" />
        </mxCell>
        <mxCell id="ZjjznndVC-6k5SrVuJLU-26" value="3" style="rounded=0;whiteSpace=wrap;html=1;fillColor=#d5e8d4;strokeColor=#82b366;" parent="1" vertex="1">
          <mxGeometry x="830" y="230" width="10" height="20" as="geometry" />
        </mxCell>
        <mxCell id="ZjjznndVC-6k5SrVuJLU-27" value="4" style="rounded=0;whiteSpace=wrap;html=1;fillColor=#d5e8d4;strokeColor=#82b366;" parent="1" vertex="1">
          <mxGeometry x="70" y="390" width="10" height="20" as="geometry" />
        </mxCell>
        <mxCell id="ZjjznndVC-6k5SrVuJLU-28" value="5" style="rounded=0;whiteSpace=wrap;html=1;fillColor=#d5e8d4;strokeColor=#82b366;" parent="1" vertex="1">
          <mxGeometry x="560" y="390" width="10" height="20" as="geometry" />
        </mxCell>
        <UserObject label="&lt;font style=&quot;font-size: 16px;&quot;&gt;`M_{GI}^1`&lt;/font&gt;" placeholders="1" name="Variable" id="ZjjznndVC-6k5SrVuJLU-31">
          <mxCell style="text;html=1;strokeColor=none;fillColor=none;align=center;verticalAlign=middle;whiteSpace=wrap;overflow=hidden;" parent="1" vertex="1">
            <mxGeometry x="410" y="140" width="80" height="30" as="geometry" />
          </mxCell>
        </UserObject>
        <UserObject label="&lt;font style=&quot;font-size: 16px;&quot;&gt;`M_{IG}^2`&lt;/font&gt;" placeholders="1" name="Variable" id="ZjjznndVC-6k5SrVuJLU-33">
          <mxCell style="text;html=1;strokeColor=none;fillColor=none;align=center;verticalAlign=middle;whiteSpace=wrap;overflow=hidden;" parent="1" vertex="1">
            <mxGeometry x="315" y="215" width="80" height="30" as="geometry" />
          </mxCell>
        </UserObject>
        <UserObject label="&lt;font style=&quot;font-size: 16px;&quot;&gt;`M_{GI}^3`&lt;/font&gt;" placeholders="1" name="Variable" id="ZjjznndVC-6k5SrVuJLU-34">
          <mxCell style="text;html=1;strokeColor=none;fillColor=none;align=center;verticalAlign=middle;whiteSpace=wrap;overflow=hidden;" parent="1" vertex="1">
            <mxGeometry x="352.5" y="320" width="80" height="30" as="geometry" />
          </mxCell>
        </UserObject>
        <mxCell id="oK1kQUxt6v8wb85KCXEv-8" value="" style="endArrow=none;html=1;rounded=0;" parent="1" target="ZjjznndVC-6k5SrVuJLU-10" edge="1">
          <mxGeometry width="50" height="50" relative="1" as="geometry">
            <mxPoint x="298" y="258" as="sourcePoint" />
            <mxPoint x="395" y="255" as="targetPoint" />
          </mxGeometry>
        </mxCell>
        <mxCell id="ZjjznndVC-6k5SrVuJLU-10" value="&lt;font style=&quot;font-size: 16px;&quot;&gt;`\phi`&lt;/font&gt;" style="rounded=0;whiteSpace=wrap;html=1;fillColor=#d5e8d4;strokeColor=#82b366;" parent="1" vertex="1">
          <mxGeometry x="340" y="245" width="30" height="25" as="geometry" />
        </mxCell>
        <mxCell id="oK1kQUxt6v8wb85KCXEv-10" value="" style="endArrow=classic;startArrow=classic;html=1;rounded=0;" parent="1" edge="1">
          <mxGeometry width="50" height="50" relative="1" as="geometry">
            <mxPoint x="120" y="560" as="sourcePoint" />
            <mxPoint x="720" y="560" as="targetPoint" />
          </mxGeometry>
        </mxCell>
        <mxCell id="oK1kQUxt6v8wb85KCXEv-11" value="&lt;font style=&quot;font-size: 16px;&quot;&gt;Secure Channel&lt;/font&gt;" style="text;html=1;align=center;verticalAlign=middle;resizable=0;points=[];autosize=1;strokeColor=none;fillColor=none;" parent="1" vertex="1">
          <mxGeometry x="340" y="530" width="140" height="30" as="geometry" />
        </mxCell>
      </root>
    </mxGraphModel>
  </diagram>
</mxfile>
